# xmcd
#
# Track frame offsets:
# 150
# 22870
# 41242
# 61916
# 79146
# 98301
# 122113
# 141745
# 159239
# 181169
# 199373
# 213785
# 229338
#
# Disc length: 3269 seconds
#
#
# Revision: 0
# Processed by: cddbd v1.4PL0 Copyright (c) Steve Scherf et al.
# Submitted via: FreeRIP 2.35 
#
DISCID=ac0cc30d
DTITLE=Wayne Baker Brooks - Mystery
DYEAR=2003
DGENRE=Blues
TTITLE0=Mystery
TTITLE1=Baby Stop
TTITLE2=Exiled
TTITLE3=Ain't That Lovin' You
TTITLE4=She's Dangerous
TTITLE5=Nu Kind Of Blues
TTITLE6=It Don't Work Like That
TTITLE7=Your Turn (To Talk To The Blues)
TTITLE8=Sooner Or Later
TTITLE9=Tell Me
TTITLE10=You Make It Easy, Baby
TTITLE11=Just Lika Butterfly
TTITLE12=Root Of My Soul
EXTD=
EXTT0=
EXTT1=
EXTT2=
EXTT3=
EXTT4=
EXTT5=
EXTT6=
EXTT7=
EXTT8=
EXTT9=
EXTT10=
EXTT11=
EXTT12=
PLAYORDER=
